:FULLY-SPECIFIED
:FORCE-ALL-JOINTS-BE-3DOF
:DEGREES
917
root 2.63121 15.9751 32.2702 3.02766 11.1816 3.67524
lfemur -8.31866 13.0059 -5.16938
ltibia 24.5083 -0 0
lfoot -22.7719 -15.5354 0.898948
ltoes -8.65386 0 0
rfemur -26.4179 -8.60894 -7.27586
rtibia 67.4658 -0 0
rfoot 1.39852 -12.8766 -0.309117
rtoes -7.50898 0 0
lowerback -0.658581 -2.02958 -2.93763
upperback -0.61148 -2.64259 -5.43558
thorax -0.289613 -1.36492 -3.93473
lowerneck -7.34994 -3.24794 -0.0359508
upperneck 4.05673 -4.63421 4.95781
head 2.73803 -2.13887 1.3744
lclavicle 7.40473e-015 3.49861e-014 0
lhumerus -55.084 -41.3428 109.865
lradius 59.3587 -0 0
lwrist 19.2689 0 0
lhand 38.2525 24.4922 0.138569
lfingers 7.12502 -0 0
lthumb 60.8611 36.759 -0.0181738
rclavicle 7.40473e-015 3.49861e-014 0
rhumerus -49.1987 34.1109 -69.4961
rradius 108.737 -0 0
rwrist -12.1684 0 0
rhand 20.0654 -8.11584 -1.30888
rfingers 7.12502 -0 0
rthumb 44.5887 -32.1903 -1.3139
918
root 2.56954 15.9505 32.3075 3.22387 10.1161 3.93275
lfemur -7.11298 11.6898 -4.50636
ltibia 22.6934 -0 0
lfoot -23.2042 -16.8771 0.870882
ltoes -9.66634 0 0
rfemur -26.3891 -8.29214 -7.6967
rtibia 65.4061 -0 0
rfoot 0.692868 -12.1897 -0.310035
rtoes -10.9966 0 0
lowerback -0.938357 -1.92848 -2.88295
upperback -0.6819 -2.49707 -5.70048
thorax -0.215196 -1.29269 -4.25413
lowerneck -7.35987 -2.97942 0.117978
upperneck 4.00225 -4.28699 4.94838
head 2.70678 -1.96486 1.36158
lclavicle 7.40473e-015 3.49861e-014 0
lhumerus -55.2157 -41.3532 109.629
lradius 59.1784 -0 0
lwrist 19.8387 0 0
lhand 38.6685 24.9616 0.140269
lfingers 7.12502 -0 0
lthumb 61.2104 36.8184 -0.0155518
rclavicle 7.40473e-015 3.49861e-014 0
rhumerus -48.8054 36.068 -67.5363
rradius 107.922 -0 0
rwrist -12.3666 0 0
rhand 20.7259 -8.15675 -1.35996
rfingers 7.12502 -0 0
rthumb 45.2076 -32.0584 -1.37885
919
root 2.50786 15.9258 32.3448 3.40879 9.05691 4.18186
lfemur -5.93624 10.3747 -3.88141
ltibia 20.8948 -0 0
lfoot -23.6296 -18.1973 0.832141
ltoes -10.6712 0 0
rfemur -26.3786 -7.99179 -8.09956
rtibia 63.3598 -0 0
rfoot -0.0182513 -11.4925 -0.304816
rtoes -14.4591 0 0
lowerback -1.20956 -1.82772 -2.82824
upperback -0.750553 -2.35293 -5.9609
thorax -0.143227 -1.22064 -4.56868
lowerneck -7.36824 -2.71192 0.274003
upperneck 3.94659 -3.94123 4.93772
head 2.67505 -1.79164 1.34789
lclavicle 7.40473e-015 3.49861e-014 0
lhumerus -55.3396 -41.363 109.389
lradius 58.9988 -0 0
lwrist 20.4039 0 0
lhand 39.0708 25.4167 0.139925
lfingers 7.12502 -0 0
lthumb 61.5478 36.8737 -0.0129137
rclavicle 7.40473e-015 3.49861e-014 0
rhumerus -48.2497 37.9622 -65.4482
rradius 107.049 -0 0
rwrist -12.5567 0 0
rhand 21.3386 -8.22739 -1.39537
rfingers 7.12502 -0 0
rthumb 45.7815 -31.9637 -1.42834
920
root 2.44619 15.9011 32.3821 3.58292 8.00984 4.42149
lfemur -4.79274 9.07033 -3.29502
ltibia 19.1221 -0 0
lfoot -24.0463 -19.4859 0.783544
ltoes -11.6654 0 0
rfemur -26.3845 -7.70943 -8.48411
rtibia 61.342 -0 0
rfoot -0.731751 -10.7902 -0.293573
rtoes -17.8735 0 0
lowerback -1.47144 -1.72793 -2.77333
upperback -0.817341 -2.21106 -6.2153
thorax -0.0740198 -1.14921 -4.87678
lowerneck -7.37487 -2.44694 0.431365
upperneck 3.88974 -3.59888 4.92588
head 2.64289 -1.6202 1.33338
lclavicle 7.40473e-015 3.49861e-014 0
lhumerus -55.4568 -41.3731 109.15
lradius 58.8206 -0 0
lwrist 20.9605 0 0
lhand 39.4585 25.8557 0.137543
lfingers 7.12502 -0 0
lthumb 61.8725 36.925 -0.0103129
rclavicle 7.40473e-015 3.49861e-014 0
rhumerus -47.5175 39.7761 -63.2249
rradius 106.123 -0 0
rwrist -12.7385 0 0
rhand 21.8964 -8.32892 -1.41307
rfingers 7.12502 -0 0
rthumb 46.3036 -31.9088 -1.45976
921
root 2.38452 15.8764 32.4194 3.74684 6.98065 4.65058
lfemur -3.68649 7.78682 -2.74711
ltibia 17.3849 -0 0
lfoot -24.4528 -20.7331 0.726115
ltoes -12.6456 0 0
rfemur -26.4046 -7.44653 -8.84995
rtibia 59.3674 -0 0
rfoot -1.44455 -10.088 -0.276619
rtoes -21.2168 0 0
lowerback -1.72321 -1.62976 -2.71805
upperback -0.882147 -2.0723 -6.46214
thorax -0.00787673 -1.0789 -5.17688
lowerneck -7.37962 -2.18603 0.589305
upperneck 3.83167 -3.26188 4.91289
head 2.61038 -1.45153 1.3181
lclavicle 7.40473e-015 3.49861e-014 0
lhumerus -55.5687 -41.3844 108.915
lradius 58.6444 -0 0
lwrist 21.5045 0 0
lhand 39.8306 26.2764 0.133159
lfingers 7.12502 -0 0
lthumb 62.1838 36.9719 -0.00780228
rclavicle 7.40473e-015 3.49861e-014 0
rhumerus -46.596 41.4912 -60.8608
rradius 105.147 -0 0
rwrist -12.9117 0 0
rhand 22.3916 -8.46245 -1.4111
rfingers 7.12502 -0 0
rthumb 46.767 -31.8962 -1.47059
922
root 2.32284 15.8518 32.4567 3.9012 5.97511 4.86809
lfemur -2.62135 6.53422 -2.2371
ltibia 15.6929 -0 0
lfoot -24.8475 -21.9287 0.661069
ltoes -13.6087 0 0
rfemur -26.4369 -7.20455 -9.19666
rtibia 57.4509 -0 0
rfoot -2.1536 -9.39117 -0.254472
rtoes -24.4658 0 0
lowerback -1.96412 -1.53383 -2.66221
upperback -0.944846 -1.93754 -6.69987
thorax 0.0549066 -1.01016 -5.46738
lowerneck -7.38234 -1.93068 0.747067
upperneck 3.7724 -2.9322 4.89879
head 2.57758 -1.28662 1.30211
lclavicle 7.40473e-015 3.49861e-014 0
lhumerus -55.6765 -41.3975 108.689
lradius 58.471 -0 0
lwrist 22.0322 0 0
lhand 40.186 26.6769 0.126836
lfingers 7.12502 -0 0
lthumb 62.481 37.0144 -0.00543501
rclavicle 7.40473e-015 3.49861e-014 0
rhumerus -45.4753 43.0883 -58.3526
rradius 104.122 -0 0
rwrist -13.076 0 0
rhand 22.8169 -8.62917 -1.38763
rfingers 7.12502 -0 0
rthumb 47.1649 -31.9284 -1.45836
923
root 2.26117 15.8271 32.494 4.04673 4.99901 5.07296
lfemur -1.60107 5.32267 -1.76397
ltibia 14.0557 -0 0
lfoot -25.2288 -23.063 0.589789
ltoes -14.5515 0 0
rfemur -26.4793 -6.98487 -9.52379
rtibia 55.6074 -0 0
rfoot -2.85583 -8.7049 -0.22785
rtoes -27.5975 0 0
lowerback -2.19341 -1.44078 -2.60562
upperback -1.00529 -1.80762 -6.92694
thorax 0.114043 -0.943483 -5.74673
lowerneck -7.38292 -1.68244 0.903896
upperneck 3.7119 -2.61176 4.88364
head 2.54455 -1.12646 1.28544
lclavicle 7.40473e-015 3.49861e-014 0
lhumerus -55.7814 -41.4134 108.477
lradius 58.3011 -0 0
lwrist 22.5397 0 0
lhand 40.5237 27.0551 0.118659
lfingers 7.12502 -0 0
lthumb 62.7634 37.0523 -0.0032647
rclavicle 7.40473e-015 3.49861e-014 0
rhumerus -44.1491 44.5472 -55.7005
rradius 103.053 -0 0
rwrist -13.2313 0 0
rhand 23.1649 -8.83029 -1.34095
rfingers 7.12502 -0 0
rthumb 47.4902 -32.0079 -1.42071
924
root 2.19949 15.8024 32.5314 4.1842 4.05811 5.26412
lfemur -0.629385 4.16231 -1.32632
ltibia 12.4829 -0 0
lfoot -25.5953 -24.1259 0.51381
ltoes -15.4708 0 0
rfemur -26.5299 -6.78889 -9.83086
rtibia 53.8519 -0 0
rfoot -3.54824 -8.03438 -0.197671
rtoes -30.5889 0 0
lowerback -2.41032 -1.35124 -2.5481
upperback -1.06334 -1.6834 -7.14181
thorax 0.169251 -0.879355 -6.01334
lowerneck -7.38125 -1.44281 1.05904
upperneck 3.65018 -2.30252 4.86748
head 2.51137 -0.972025 1.26816
lclavicle 7.40473e-015 3.49861e-014 0
lhumerus -55.8848 -41.4328 108.283
lradius 58.1355 -0 0
lwrist 23.0229 0 0
lhand 40.8427 27.409 0.108732
lfingers 7.12502 -0 0
lthumb 63.0304 37.0855 -0.00134603
rclavicle 7.40473e-015 3.49861e-014 0
rhumerus -42.6164 45.8475 -52.9102
rradius 101.941 -0 0
rwrist -13.3772 0 0
rhand 23.4278 -9.06712 -1.26952
rfingers 7.12502 -0 0
rthumb 47.736 -32.1375 -1.35546
925
root 2.13782 15.7777 32.5687 4.3144 3.15817 5.4405
lfemur 0.289927 3.06331 -0.922426
ltibia 10.9843 -0 0
lfoot -25.9458 -25.1076 0.434797
ltoes -16.3635 0 0
rfemur -26.5864 -6.61795 -10.1173
rtibia 52.1991 -0 0
rfoot -4.22782 -7.38478 -0.165037
rtoes -33.4169 0 0
lowerback -2.61407 -1.26585 -2.48943
upperback -1.11883 -1.56574 -7.34293
thorax 0.220259 -0.818263 -6.26567
lowerneck -7.37723 -1.21333 1.21174
upperneck 3.58724 -2.00643 4.85037
head 2.4781 -0.824315 1.25032
lclavicle 7.40473e-015 3.49861e-014 0
lhumerus -55.988 -41.4564 108.111
lradius 57.9748 -0 0
lwrist 23.4782 0 0
lhand 41.1421 27.7366 0.097171
lfingers 7.12502 -0 0
lthumb 63.2811 37.1137 0.000264834
rclavicle 7.40473e-015 3.49861e-014 0
rhumerus -40.8831 46.9686 -49.9939
rradius 100.791 -0 0
rwrist -13.5136 0 0
rhand 23.5982 -9.34104 -1.17202
rfingers 7.12502 -0 0
rthumb 47.8951 -32.3198 -1.26064
926
root 2.07615 15.7531 32.606 4.43821 2.30495 5.60099
lfemur 1.15302 2.0358 -0.550297
ltibia 9.56942 -0 0
lfoot -26.2789 -25.9981 0.354517
ltoes -17.2263 0 0
rfemur -26.647 -6.47335 -10.3827
rtibia 50.6639 -0 0
rfoot -4.8916 -6.76124 -0.13123
rtoes -36.0585 0 0
lowerback -2.80393 -1.18524 -2.42943
upperback -1.17158 -1.45548 -7.52874
thorax 0.266796 -0.760698 -6.50212
lowerneck -7.37078 -0.995514 1.36124
upperneck 3.52307 -1.72543 4.83237
head 2.44481 -0.684312 1.23197
lclavicle 7.40473e-015 3.49861e-014 0
lhumerus -56.0921 -41.4852 107.966
lradius 57.8198 -0 0
lwrist 23.9015 0 0
lhand 41.4207 28.0358 0.0840971
lfingers 7.12502 -0 0
lthumb 63.515 37.1369 0.00150973
rclavicle 7.40473e-015 3.49861e-014 0
rhumerus -38.9632 47.8905 -46.9721
rradius 99.6038 -0 0
rwrist -13.6401 0 0
rhand 23.6683 -9.6536 -1.04734
rfingers 7.12502 -0 0
rthumb 47.9603 -32.5578 -1.13452
927
root 2.01447 15.7284 32.6433 4.55647 1.50422 5.74446
lfemur 1.95592 1.08987 -0.207749
ltibia 8.24793 -0 0
lfoot -26.5935 -26.7877 0.274818
ltoes -18.0562 0 0
rfemur -26.7096 -6.3564 -10.6264
rtibia 49.2613 -0 0
rfoot -5.53665 -6.16886 -0.0976964
rtoes -38.4905 0 0
lowerback -2.97911 -1.11006 -2.36788
upperback -1.22141 -1.35347 -7.69768
thorax 0.308598 -0.707152 -6.72114
lowerneck -7.36183 -0.790887 1.5068
upperneck 3.45767 -1.46146 4.81355
head 2.41157 -0.553005 1.21318
lclavicle 7.40473e-015 3.49861e-014 0
lhumerus -56.1985 -41.5198 107.852
lradius 57.6711 -0 0
lwrist 24.289 0 0
lhand 41.6775 28.3047 0.0696335
lfingers 7.12502 -0 0
lthumb 63.7313 37.1548 0.00232795
rclavicle 7.40473e-015 3.49861e-014 0
rhumerus -36.8796 48.5942 -43.8745
rradius 98.384 -0 0
rwrist -13.7565 0 0
rhand 23.6305 -10.0065 -0.894688
rfingers 7.12502 -0 0
rthumb 47.9243 -32.8543 -0.975686
928
root 1.9528 15.7037 32.6806 4.67008 0.761745 5.86978
lfemur 2.69452 0.235568 0.107526
ltibia 7.02947 -0 0
lfoot -26.8884 -27.4664 0.197599
ltoes -18.8498 0 0
rfemur -26.7722 -6.26837 -10.8478
rtibia 48.006 -0 0
rfoot -6.16005 -5.61272 -0.0660301
rtoes -40.6899 0 0
lowerback -3.13888 -1.04093 -2.30457
upperback -1.26816 -1.26057 -7.84822
thorax 0.345405 -0.658119 -6.92117
lowerneck -7.35033 -0.600973 1.64764
upperneck 3.39106 -1.21648 4.79398
head 2.37846 -0.431379 1.194
lclavicle 7.40473e-015 3.49861e-014 0
lhumerus -56.3085 -41.5611 107.774
lradius 57.5295 -0 0
lwrist 24.6367 0 0
lhand 41.9117 28.5412 0.0538975
lfingers 7.12502 -0 0
lthumb 63.9293 37.1674 0.0026557
rclavicle 7.40473e-015 3.49861e-014 0
rhumerus -34.6644 49.0628 -40.74
rradius 97.1338 -0 0
rwrist -13.8626 0 0
rhand 23.4769 -10.4016 -0.713546
rfingers 7.12502 -0 0
rthumb 47.7797 -33.2128 -0.783128
